<svg xmlns="http://www.w3.org/2000/svg" width="24" height="24" fill="currentColor" viewBox="0 0 24 24">
  <path d="M12 2.2c3.07 0 3.44.01 4.65.07 1.2.06 2.03.25 2.7.54.65.29 1.21.67 1.77 1.23.56.56.94 1.12 1.23 1.77.29.67.48 1.5.54 2.7.06 1.21.07 1.58.07 4.65s-.01 3.44-.07 4.65c-.06 1.2-.25 2.03-.54 2.7-.29.65-.67 1.21-1.23 1.77-.56.56-1.12.94-1.77 1.23-.67.29-1.5.48-2.7.54-1.21.06-1.58.07-4.65.07s-3.44-.01-4.65-.07c-1.2-.06-2.03-.25-2.7-.54-.65-.29-1.21-.67-1.77-1.23-.56-.56-.94-1.12-1.23-1.77-.29-.67-.48-1.5-.54-2.7C2.21 15.44 2.2 15.07 2.2 12s.01-3.44.07-4.65c.06-1.2.25-2.03.54-2.7.29-.65.67-1.21 1.23-1.77.56-.56 1.12-.94 1.77-1.23.67-.29 1.5-.48 2.7-.54C8.56 2.21 8.93 2.2 12 2.2m0-2.2C8.86 0 8.44 0 7.22.06 6.02.12 5.09.32 4.3.62 3.5.93 2.8 1.34 2.1 2.05c-.71.71-1.12 1.41-1.43 2.21-.3.79-.5 1.72-.56 2.92C0 8.44 0 8.86 0 12s0 3.56.06 4.78c.06 1.2.26 2.03.56 2.92.31.8.72 1.5 1.43 2.21.71.71 1.41 1.12 2.21 1.43.79.3 1.72.5 2.92.56 1.22.06 1.64.06 4.78.06s3.56 0 4.78-.06c1.2-.06 2.03-.26 2.92-.56.8-.31 1.5-.72 2.21-1.43.71-.71 1.12-1.41 1.43-2.21.3-.79.5-1.72.56-2.92.06-1.22.06-1.64.06-4.78s0-3.56-.06-4.78c-.06-1.2-.26-2.03-.56-2.92-.31-.8-.72-1.5-1.43-2.21-.71-.71-1.41-1.12-2.21-1.43-.79-.3-1.72-.5-2.92-.56C15.44 0 15.02 0 12 0h0zm0 5.82c-3.4 0-6.18 2.77-6.18 6.18S8.6 18.18 12 18.18 18.18 15.4 18.18 12 15.4 5.82 12 5.82m0 2.18c2.21 0 4 1.79 4 4s-1.79 4-4 4-4-1.79-4-4 1.79-4 4-4m6.54-.44c0 .87-.7 1.58-1.58 1.58-.87 0-1.58-.7-1.58-1.58 0-.87.7-1.58 1.58-1.58.87 0 1.58.71 1.58 1.58"/>
</svg>
