<svg xmlns="http://www.w3.org/2000/svg" width="24" height="24" fill="currentColor" class="bi bi-twitter" viewBox="0 0 16 16">
  <path d="M5.026 15c6.038 0 9.341-5.003 9.341-9.334 0-.141 0-.282-.006-.422A6.684 6.684 0 0 0 16 3.542a6.657 6.657 0 0 1-1.889.518 3.301 3.301 0 0 0 1.443-1.817 6.533 6.533 0 0 1-2.084.797 3.286 3.286 0 0 0-5.595 2.995 9.325 9.325 0 0 1-6.767-3.429 3.288 3.288 0 0 0 1.018 4.384A3.323 3.323 0 0 1 .64 6.575v.045a3.288 3.288 0 0 0 2.632 3.218 3.203 3.203 0 0 1-.865.115 3.23 3.23 0 0 1-.614-.057 3.283 3.283 0 0 0 3.067 2.277 6.588 6.588 0 0 1-4.862 1.36 9.344 9.344 0 0 0 5.034 1.475" />
</svg>
